<svg width="49" height="48" viewBox="0 0 49 48" fill="none" xmlns="http://www.w3.org/2000/svg">
<g clip-path="url(#clip0)">
<path d="M24.5 0C11.2666 0 0.5 10.7666 0.5 24C0.5 25.535 0.651095 27.0361 0.927382 28.4921L0.837342 28.6001C0.880512 28.6364 0.922448 28.6673 0.965618 28.7031C3.15803 39.6923 12.8756 48 24.5 48C37.7334 48 48.5 37.2334 48.5 24C48.5 10.7666 37.7334 0 24.5 0ZM44.9409 15.5714C44.9089 23.3574 37.9647 25.0176 35.0458 25.3697C37.4787 16.98 36.7855 8.9263 36.2539 5.28215C40.1152 7.71631 43.1759 11.3087 44.9409 15.5714ZM34.1472 4.10607C34.55 6.18748 36.0708 15.5628 33.1142 25.2704C27.4886 23.7792 26.6906 19.6824 25.6255 14.1055C24.9046 10.3275 24.0893 6.09436 21.4972 2.09559C22.4803 1.96176 23.4812 1.88652 24.5 1.88652C27.9567 1.88652 31.2302 2.68517 34.1472 4.10607ZM19.4726 2.46994C22.2188 6.34968 23.0452 10.6488 23.7729 14.4595C24.8299 19.9969 25.8364 25.239 32.5148 27.0688C32.022 28.4261 31.4362 29.7811 30.7405 31.1156C16.8891 24.4058 8.39023 13.6269 6.54255 11.12C9.61872 6.84181 14.183 3.70459 19.4726 2.46994ZM5.4448 12.7974C8.03191 16.1807 16.508 26.2763 29.8179 32.761C29.2974 33.6287 28.7245 34.4823 28.0979 35.3185C24.4544 33.5091 21.0322 33.2291 17.7162 32.959C13.1278 32.5846 8.38652 32.1844 2.69673 27.6731C2.49568 26.478 2.38591 25.2519 2.38591 24C2.38652 19.9137 3.50463 16.0857 5.4448 12.7974ZM3.36586 30.5119C8.677 34.1073 13.1852 34.4823 17.5632 34.84C20.7165 35.0971 23.7131 35.3457 26.8879 36.8332C24.3298 39.8267 20.9903 42.5285 16.656 44.671C10.3255 42.2603 5.37697 37.0262 3.36586 30.5119ZM19.1981 45.4672C23.134 43.2692 26.2163 40.6118 28.6233 37.7126C29.6341 38.2714 31.615 39.5757 32.1312 41.4536C32.4377 42.5668 32.1596 43.77 31.3221 45.0324C29.1728 45.7311 26.8811 46.1141 24.5006 46.1141C22.6727 46.1135 20.8972 45.8865 19.1981 45.4672ZM33.8851 44.0173C34.1978 42.9781 34.2256 41.9507 33.9474 40.9442C33.2888 38.5618 31.1118 36.9763 29.7976 36.2097C30.4315 35.3444 31.0106 34.4625 31.5385 33.5677C34.8404 35.049 38.4192 36.2911 42.2613 37.157C40.0887 40.082 37.2123 42.4508 33.8851 44.0173ZM43.3967 35.4752C39.4664 34.6475 35.8154 33.4067 32.4562 31.913C33.2394 30.3984 33.8882 28.8591 34.4241 27.321C36.0806 27.2007 40.7208 26.5816 43.8592 23.3821C44.9132 22.3077 45.6829 21.0472 46.1768 19.6226C46.4624 21.0379 46.6141 22.5014 46.6141 24C46.6135 28.1992 45.4368 32.1283 43.3967 35.4752Z" fill="#303030"/>
</g>
<defs>
<clipPath id="clip0">
<rect width="48" height="48" fill="white" transform="translate(0.5)"/>
</clipPath>
</defs>
</svg>
