<svg width="48" height="48" viewBox="0 0 48 48" fill="none" xmlns="http://www.w3.org/2000/svg">
<g clip-path="url(#clip0)">
<path d="M45.5451 24.8313L41.9947 21.2809C42.0577 21.0559 42.0921 20.8191 42.0921 20.5743V15.1231C42.0921 14.6053 41.6723 14.1856 41.1546 14.1856H34.8784L28.2684 0.528972C28.1316 0.246316 27.8624 0.0509418 27.5513 0.00847316C27.2402 -0.0339018 26.9283 0.0821605 26.721 0.317848L20.0392 7.90774L13.8126 5.64143C13.5791 5.5564 13.3213 5.56756 13.0958 5.67274C12.8706 5.77784 12.6961 5.96806 12.6112 6.20177L10.7467 11.3241C10.618 11.6775 10.5682 12.0464 10.5945 12.4106L9.47738 12.983C6.99404 14.2554 5.10076 16.4001 4.14648 19.0221L0.603956 28.7553C-0.0882927 30.657 0.00151955 32.7145 0.856799 34.5488C1.71208 36.3831 3.23045 37.7744 5.13226 38.4665L15.279 42.1597C15.8144 42.3546 16.3615 42.4476 16.899 42.4476C18.6671 42.4475 20.331 41.4414 21.1264 39.7445L22.9198 35.919V40.4231C22.9198 44.6009 26.3188 47.9998 30.4966 47.9998H38.0845C42.2623 47.9998 45.6612 44.6009 45.6612 40.4231V36.5771C47.0028 35.4468 47.8572 33.7558 47.8572 31.8684V30.4137C47.8573 28.305 47.0362 26.3224 45.5451 24.8313ZM34.2913 16.0609C34.2927 16.0609 34.294 16.0607 34.2954 16.0607H40.2171V17.7549H34.9864C34.4687 17.7549 34.0489 18.1747 34.0489 18.6924C34.0489 19.2102 34.4687 19.6299 34.9864 19.6299H40.2171V20.5744C40.2171 20.9879 39.8807 21.3243 39.4673 21.3243H29.114C28.7005 21.3243 28.3641 20.9879 28.3641 20.5744V16.0607H34.288C34.2891 16.0607 34.2901 16.0609 34.2913 16.0609ZM27.1956 2.61631L32.7954 14.1857H27.4267C26.909 14.1857 26.4892 14.6054 26.4892 15.1232V20.3236L25.0758 17.2925C25.2131 17.1004 25.3257 16.8888 25.4086 16.6609L27.273 11.5384C27.4502 11.0519 27.1993 10.5139 26.7126 10.3368L21.9311 8.59643L27.1956 2.61631ZM12.5084 11.9654L12.9567 10.7337L18.6643 12.8111C18.7701 12.8497 18.8783 12.8679 18.9848 12.8679C19.3678 12.8679 19.7273 12.6315 19.8658 12.2508C20.043 11.7642 19.7921 11.2263 19.3055 11.0492L13.5979 8.97189L14.0522 7.72408L25.1903 11.778L23.6465 16.0195C23.5781 16.2077 23.4404 16.358 23.2589 16.4426C23.0772 16.5273 22.8739 16.5364 22.6854 16.4677L12.9566 12.9266C12.7685 12.8582 12.6182 12.7204 12.5335 12.5389C12.4489 12.3573 12.44 12.1538 12.5084 11.9654ZM22.9199 31.5018L19.4288 38.9487C18.8064 40.2764 17.298 40.8989 15.9203 40.3978L5.7736 36.7047C4.34242 36.1837 3.19979 35.1367 2.5562 33.7564C1.91261 32.3762 1.84492 30.8278 2.36589 29.3965L5.90832 19.6636C6.70032 17.4877 8.27147 15.7078 10.3323 14.6519L11.389 14.1105C11.6503 14.3631 11.9636 14.5607 12.3154 14.6888L22.0442 18.2298C22.3371 18.3364 22.6407 18.3895 22.9435 18.3895C23.1272 18.3895 23.3104 18.3696 23.4909 18.3307L25.0373 21.6471C25.2333 22.0672 25.3956 22.505 25.522 22.9532C23.8403 24.9417 22.9199 27.4475 22.9199 30.0656V31.5018ZM45.9824 31.8684C45.9823 34.2296 44.0615 36.1504 41.7004 36.1504H40.1704C38.869 36.1504 37.8103 35.0917 37.8103 33.7903C37.8103 32.4889 38.869 31.4302 40.1704 31.4302H41.8573C42.375 31.4302 42.7948 31.0104 42.7948 30.4927C42.7948 29.975 42.375 29.5552 41.8573 29.5552H40.1704C37.8352 29.5552 35.9353 31.4551 35.9353 33.7903C35.9353 36.1255 37.8352 38.0254 40.1704 38.0254H41.7004C42.4324 38.0254 43.1346 37.8964 43.7863 37.661V40.4231C43.7863 43.5671 41.2286 46.1249 38.0846 46.1249H30.4966C27.3527 46.1249 24.7949 43.5671 24.7949 40.4231V30.0653C24.7949 27.7498 25.6625 25.5399 27.2381 23.8428L28.0469 22.9715C28.3732 23.1173 28.7342 23.1991 29.114 23.1991H39.4673C39.9786 23.1991 40.4559 23.0516 40.8598 22.7976L44.2193 26.157C45.3563 27.2939 45.9824 28.8056 45.9824 30.4135V31.8684Z" fill="#303030"/>
<path d="M31.8012 18.0299C31.6259 17.8546 31.385 17.7552 31.1384 17.7552C30.8919 17.7552 30.65 17.8546 30.4756 18.0299C30.3003 18.2043 30.2009 18.4452 30.2009 18.6927C30.2009 18.9393 30.3003 19.1812 30.4756 19.3556C30.65 19.5299 30.8919 19.6302 31.1384 19.6302C31.385 19.6302 31.6259 19.5299 31.8012 19.3556C31.9755 19.1812 32.0759 18.9393 32.0759 18.6927C32.0759 18.4452 31.9756 18.2043 31.8012 18.0299Z" fill="#303030"/>
<path d="M11.8443 34.9235L11.8167 34.9135C11.3293 34.737 10.7921 34.989 10.616 35.4758C10.4396 35.9626 10.6915 36.5003 11.1782 36.6765L11.2058 36.6865C11.3112 36.7246 11.4189 36.7428 11.5249 36.7428C11.9084 36.7428 12.2684 36.5057 12.4064 36.1242C12.5829 35.6374 12.3311 35.0997 11.8443 34.9235Z" fill="#303030"/>
<path d="M8.49898 33.7061L7.0556 33.1807C6.56567 33.0024 6.17464 32.6439 5.95423 32.1714C5.73392 31.6989 5.71076 31.169 5.88917 30.679C6.06635 30.1926 5.81548 29.6544 5.32892 29.4774C4.84245 29.3003 4.30433 29.5511 4.12733 30.0377C3.77764 30.9982 3.82292 32.0376 4.25492 32.9639C4.68683 33.8903 5.4537 34.5931 6.41435 34.9426L7.85773 35.4679C7.96357 35.5065 8.07176 35.5248 8.17826 35.5248C8.56123 35.5248 8.92076 35.2883 9.05922 34.9076C9.23641 34.4211 8.98554 33.8832 8.49898 33.7061Z" fill="#303030"/>
</g>
<defs>
<clipPath id="clip0">
<rect width="48" height="48" fill="white"/>
</clipPath>
</defs>
</svg>
