<svg width="13" height="13" viewBox="0 0 13 13" fill="none" xmlns="http://www.w3.org/2000/svg">
<g clip-path="url(#clip0)">
<path d="M11.9985 8.16652C11.8197 8.16652 11.6747 8.31145 11.6747 8.49028V11.365C11.6741 11.9012 11.2397 12.3358 10.7034 12.3363H1.61884C1.0826 12.3358 0.648167 11.9012 0.647535 11.365V2.92793C0.648167 2.39182 1.0826 1.95726 1.61884 1.95663H4.49354C4.67237 1.95663 4.8173 1.8117 4.8173 1.63286C4.8173 1.45416 4.67237 1.3091 4.49354 1.3091H1.61884C0.725188 1.31011 0.00101177 2.03429 0 2.92793V11.3651C0.00101177 12.2588 0.725188 12.9829 1.61884 12.9839H10.7034C11.5971 12.9829 12.3212 12.2588 12.3223 11.3651V8.49028C12.3223 8.31145 12.1773 8.16652 11.9985 8.16652Z" fill="#828282"/>
<path d="M12.1941 0.476033C11.6251 -0.0929631 10.7026 -0.0929631 10.1336 0.476033L4.35742 6.25224C4.31784 6.29183 4.28926 6.3409 4.27433 6.39478L3.51474 9.13706C3.48351 9.24949 3.51525 9.3699 3.59771 9.45248C3.6803 9.53494 3.8007 9.56669 3.91313 9.53557L6.65541 8.77586C6.70929 8.76093 6.75836 8.73235 6.79795 8.69277L12.574 2.91643C13.1421 2.34705 13.1421 1.42533 12.574 0.855953L12.1941 0.476033ZM5.06288 6.46269L9.79027 1.73518L11.3149 3.2598L6.58737 7.98731L5.06288 6.46269ZM4.75834 7.0738L5.97639 8.29198L4.29153 8.75879L4.75834 7.0738ZM12.1162 2.4586L11.7728 2.80197L10.2481 1.27723L10.5916 0.93386C10.9076 0.617807 11.4201 0.617807 11.7362 0.93386L12.1162 1.31378C12.4318 1.63021 12.4318 2.1423 12.1162 2.4586Z" fill="#828282"/>
</g>
<defs>
<clipPath id="clip0">
<rect width="13" height="13" fill="white"/>
</clipPath>
</defs>
</svg>
