<svg width="49" height="48" viewBox="0 0 49 48" fill="none" xmlns="http://www.w3.org/2000/svg">
<g clip-path="url(#clip0)">
<path d="M15.4695 1.75626C12.4922 2.96336 9.82064 4.73819 7.52978 7.02835C5.23825 9.31918 3.46539 11.9914 2.25761 14.968C1.09162 17.8438 0.5 20.8828 0.5 24C0.5 27.1166 1.09162 30.1555 2.25761 33.03C3.46539 36.0073 5.23891 38.6795 7.52978 40.9697C9.82064 43.2612 12.4915 45.0347 15.4695 46.2418C18.3454 47.4091 21.3837 47.9987 24.501 47.9987C27.6183 47.9987 30.6559 47.4071 33.5318 46.2418C36.5085 45.0347 39.1813 43.2612 41.4715 40.9697C43.7631 38.6795 45.5366 36.0086 46.7437 33.03C47.9097 30.1555 48.5 27.1166 48.5 24C48.5 20.8828 47.909 17.8438 46.7437 14.968C45.5366 11.9914 43.7617 9.31852 41.4715 7.02835C39.1813 4.73819 36.5111 2.96336 33.5318 1.75626C30.6559 0.590947 27.6183 0 24.501 0C21.3837 0 18.3454 0.590947 15.4695 1.75626ZM6.49842 34.1031C5.34238 33.3775 4.2772 32.5419 3.33406 31.5576C1.89349 27.5039 1.64941 23.1152 2.60383 18.9494C3.05285 18.064 3.56355 17.2137 4.14124 16.3993C4.31965 16.1479 4.4848 15.8859 4.67582 15.6419L10.0919 18.8466C10.0919 18.8891 10.0919 18.9355 10.0919 18.9826C10.078 21.8955 10.3738 24.7873 10.9628 27.6372C10.9647 27.6505 10.9667 27.6578 10.9694 27.6697L6.76903 34.2557C6.6775 34.2093 6.58664 34.1588 6.49842 34.1031ZM22.6021 45.2369C23.5366 45.7138 24.4977 46.1164 25.4853 46.444C21.2902 46.6264 17.0534 45.6435 13.308 43.4946L22.3872 45.1123C22.4569 45.1567 22.5278 45.1991 22.6021 45.2369ZM22.5689 43.5981L11.8548 41.6886C10.6013 40.1665 9.47376 38.5561 8.50475 36.835C8.25802 36.3973 7.98278 35.9721 7.77385 35.5152L11.9702 28.9358C12.0631 28.959 12.1666 28.9836 12.2839 29.0148C14.9091 29.7171 17.5807 30.2165 20.2708 30.6079C20.428 30.6297 20.5593 30.649 20.6714 30.6609L25.7015 39.358C24.8286 40.585 23.9459 41.8053 23.0438 43.0124C22.8939 43.2134 22.7348 43.4064 22.5689 43.5981ZM40.3944 39.8932C39.5415 40.7468 38.6362 41.5162 37.6884 42.202C37.5312 40.9458 37.2599 39.7148 36.8772 38.5124L42.2442 28.5001C43.7226 27.8269 45.1486 27.0635 46.4725 26.1171C46.6456 25.9944 46.7895 25.8571 46.9009 25.7072C46.5122 30.8811 44.3434 35.945 40.3944 39.8932ZM40.1563 26.9083C40.356 27.289 40.5529 27.6737 40.7506 28.0637L35.5666 37.7337C35.5368 37.7403 35.5083 37.747 35.4784 37.751C32.6762 38.2743 29.8514 38.5528 27.0028 38.5661L21.8294 29.621C22.6346 28.126 23.4325 26.6251 24.2238 25.1235C24.761 24.1048 25.2889 23.0794 25.8162 22.0547L36.523 20.9551C37.8343 22.8785 39.0766 24.843 40.1563 26.9083ZM37.9842 15.4382C37.4761 16.78 36.9323 18.1078 36.3917 19.4382L25.9615 20.5094C25.8368 20.3449 25.7074 20.1831 25.5715 20.0285C24.3398 18.6337 23.1002 17.2476 21.8626 15.8574C21.8739 15.8435 21.8851 15.8329 21.8964 15.8203C21.397 15.3215 20.8962 14.8227 20.3968 14.3227L23.3005 5.5805C23.5008 5.52744 23.7024 5.48301 23.9061 5.46112C25.4846 5.30061 27.0651 5.11889 28.6476 5.02736C29.6166 4.97297 30.5909 4.9418 31.5765 5.01144L38.7608 13.1089C38.5135 13.8902 38.272 14.6735 37.9842 15.4382ZM40.3944 8.10546C42.3762 10.0885 43.911 12.3515 44.9961 14.769C43.6536 13.8451 42.2184 13.0851 40.7095 12.4656C40.4747 12.3688 40.2339 12.2832 39.9892 12.199L32.9176 4.22882C32.9667 3.8846 32.9926 3.53971 33.0032 3.19217C35.6933 4.28718 38.215 5.92671 40.3944 8.10546ZM17.3028 2.77367C17.3306 2.79423 17.3439 2.81147 17.3598 2.81612C18.9761 3.37456 20.4466 4.19698 21.8327 5.17261L19.1201 13.3417C19.1061 13.3457 19.0929 13.3497 19.0796 13.3557C18.5245 13.5851 17.9587 13.7907 17.4122 14.0395C15.1605 15.0628 12.9651 16.1963 10.8971 17.5553L5.54401 14.3883C5.55197 14.2212 5.58049 14.0514 5.63753 13.9002C5.99701 12.9425 6.35052 11.9794 6.75709 11.041C7.07015 10.318 7.42697 9.61963 7.8163 8.93716C8.07099 8.65594 8.33496 8.37738 8.60689 8.10546C11.1491 5.56392 14.1536 3.75924 17.3525 2.69209C17.3359 2.71796 17.3187 2.74515 17.3028 2.77367Z" fill="#303030"/>
</g>
<defs>
<clipPath id="clip0">
<rect width="48" height="48" fill="white" transform="translate(0.5)"/>
</clipPath>
</defs>
</svg>
