<svg width="48" height="48" viewBox="0 0 48 48" fill="none" xmlns="http://www.w3.org/2000/svg">
<path d="M46.7147 0.650063C46.4448 0.243 45.9921 0 45.5037 0H44.3295C43.464 0 42.6693 0.507281 42.305 1.29234L26.0266 36.3723C25.6824 37.1143 24.9313 37.5938 24.1132 37.5938H17.7652C17.765 37.5938 17.7647 37.5938 17.7646 37.5938H3.62265C2.79362 37.5938 2.03659 37.9768 1.54562 38.6447C1.05456 39.3127 0.914774 40.1496 1.16199 40.9408L2.18584 44.2173C2.8929 46.4798 4.96055 48 7.33112 48C7.71952 48 8.03424 47.6852 8.03424 47.2969C8.03424 46.9086 7.71952 46.5938 7.33112 46.5938C7.0734 46.5938 6.82074 46.5688 6.57521 46.522L9.5483 39.9933L12.5542 46.5938H10.6123C10.2239 46.5938 9.90915 46.9086 9.90915 47.2969C9.90915 47.6852 10.2239 48 10.6123 48H20.1094C24.5464 48 28.5293 45.3591 30.2564 41.2718L34.8235 30.4629C34.9746 30.1053 34.8072 29.6928 34.4495 29.5416C34.0921 29.3906 33.6794 29.5579 33.5282 29.9156L32.2925 32.8402L29.9078 31.3492L38.6223 12.5693L40.3906 13.6747L34.8054 26.8929C34.6543 27.2506 34.8217 27.6631 35.1794 27.8143C35.5371 27.9654 35.9496 27.798 36.1006 27.4403L46.8422 2.01872C47.0324 1.56881 46.9846 1.05712 46.7147 0.650063ZM24.8731 38.9159L21.8431 45.5982L18.8385 39H24.1132C24.3719 39 24.6263 38.9709 24.8731 38.9159ZM16.653 39L13.6471 45.6004L10.6411 39H16.653ZM3.52796 43.7978L2.50412 40.5215C2.39181 40.1618 2.45527 39.7813 2.67849 39.4778C2.90171 39.1742 3.24577 39 3.62265 39H8.45555L5.25999 46.0172C4.45215 45.5271 3.82618 44.752 3.52796 43.7978ZM14.7398 46.5938L17.7457 39.9934L20.7413 46.572C20.532 46.5857 20.3214 46.5938 20.1094 46.5938H14.7398ZM31.7382 34.1522L28.9611 40.7245C27.8661 43.3159 25.7311 45.2397 23.1606 46.0981L27.3016 36.9655C27.3017 36.9651 27.302 36.9647 27.3022 36.9643L29.3113 32.6348L31.7382 34.1522ZM45.5469 1.47141L40.945 12.3627L39.219 11.2837L43.5806 1.88428C43.7154 1.59394 44.0093 1.40625 44.3295 1.40625H45.5037C45.5125 1.40625 45.5289 1.40625 45.5428 1.42725C45.5566 1.44825 45.5503 1.46325 45.5469 1.47141Z" fill="#303030"/>
<path d="M7.02883 35.6962C8.81224 36.013 11.175 36.1875 13.6815 36.1875C16.188 36.1875 18.5507 36.013 20.3342 35.6962C22.6367 35.2871 23.619 34.7332 23.619 33.8438V28.6875C23.619 27.7982 22.6366 27.2441 20.3342 26.8351C18.5507 26.5182 16.188 26.3438 13.6815 26.3438C11.175 26.3438 8.81233 26.5182 7.02883 26.8351C4.72633 27.2441 3.74402 27.7981 3.74402 28.6875V33.8438C3.74402 34.7331 4.72633 35.2871 7.02883 35.6962ZM13.6815 34.7812C8.65708 34.7812 5.71642 34.0887 5.15027 33.689V30.0738C5.63758 30.25 6.25905 30.4031 7.02883 30.5399C8.81224 30.8568 11.175 31.0312 13.6815 31.0312C16.188 31.0312 18.5507 30.8568 20.3342 30.5399C21.104 30.4031 21.7255 30.25 22.2128 30.0738V33.689C21.6466 34.0887 18.706 34.7812 13.6815 34.7812ZM13.6815 27.75C18.1031 27.75 20.911 28.2863 21.907 28.6875C20.911 29.0887 18.1031 29.625 13.6815 29.625C9.25989 29.625 6.45189 29.0887 5.45599 28.6875C6.45189 28.2863 9.25989 27.75 13.6815 27.75Z" fill="#303030"/>
</svg>
