<svg width="60" height="60" viewBox="0 0 60 60" fill="none" xmlns="http://www.w3.org/2000/svg">
<g clip-path="url(#clip0)">
<path d="M48.6691 31.9914L43.8519 36.8088C43.789 36.7326 43.7223 36.6585 43.651 36.5872L37.4296 30.3658C37.0855 30.0219 36.528 30.0219 36.1841 30.3658C35.8401 30.7098 35.8401 31.2674 36.1841 31.6112L42.4055 37.8326C42.9403 38.3674 42.9403 39.2376 42.4056 39.7723C41.8705 40.3071 41.0004 40.3072 40.4657 39.7723L37.0086 36.3152C36.6646 35.9713 36.1071 35.9713 35.7631 36.3152C35.4192 36.6592 35.4192 37.2168 35.7631 37.5606L39.2202 41.0177C39.2203 41.0179 39.2206 41.018 39.2207 41.0182C39.4795 41.2773 39.622 41.6214 39.622 41.9877C39.622 42.354 39.4794 42.6984 39.2202 42.9576C38.9612 43.2166 38.6168 43.3593 38.2504 43.3593C37.884 43.3593 37.5396 43.2166 37.2806 42.9576L33.8235 39.5005C33.4794 39.1566 32.9219 39.1566 32.578 39.5005C32.234 39.8444 32.234 40.4021 32.578 40.7459L36.0351 44.203C36.5699 44.7378 36.5699 45.608 36.0352 46.1427C35.776 46.4019 35.4315 46.5446 35.0651 46.5446C34.6988 46.5446 34.3544 46.4019 34.0953 46.1428L30.6382 42.6858C30.2942 42.3418 29.7367 42.3418 29.3927 42.6858C29.0488 43.0297 29.0488 43.5873 29.3927 43.9312L32.8498 47.3883C33.3847 47.923 33.3847 48.7932 32.8498 49.328C32.5908 49.587 32.2464 49.7297 31.88 49.7297C31.5136 49.7297 31.1692 49.587 30.9102 49.328L28.6706 47.0884C29.3842 45.8992 29.2294 44.3305 28.2053 43.3066L28.1523 43.2535C27.47 42.5713 26.5458 42.275 25.6531 42.3641C25.603 41.6171 25.2889 40.9215 24.7543 40.3869C24.3409 39.9735 23.8385 39.7018 23.3083 39.5717C23.4434 39.2209 23.5149 38.8448 23.5149 38.4577C23.5149 37.6308 23.1929 36.8534 22.6083 36.2687C22.0236 35.6841 21.2463 35.3621 20.4194 35.3621C19.9482 35.3621 19.4933 35.467 19.0807 35.6652C18.9419 35.1722 18.6797 34.7071 18.2926 34.32C17.0858 33.1131 15.1219 33.1132 13.9149 34.32L13.5517 34.6832L13.2869 34.4184C12.861 33.9925 12.6265 33.4264 12.6265 32.8241V30.5273C12.6265 30.2937 12.5337 30.0697 12.3686 29.9046L8.60895 26.1449L9.66612 25.0876C10.0101 24.7437 10.0101 24.186 9.66601 23.8422C9.32219 23.4981 8.76454 23.4983 8.4206 23.8422L7.00446 25.2584C6.73744 25.5255 6.30274 25.5256 6.03571 25.2584L1.50372 20.7263C1.15978 20.3824 0.60225 20.3824 0.258196 20.7263C-0.0857399 21.0703 -0.0857399 21.6278 0.258196 21.9717L4.79031 26.5039C5.26729 26.9807 5.89363 27.2191 6.51997 27.2191C6.72053 27.2191 6.92051 27.1918 7.11613 27.143L10.8651 30.8919V32.824C10.8651 33.8967 11.2829 34.9051 12.0414 35.6637L12.3063 35.9286L12.0116 36.2233C11.4269 36.808 11.1048 37.5853 11.1048 38.4122C11.1048 39.2391 11.4268 40.0165 12.0114 40.601C12.615 41.2044 13.4077 41.5062 14.2005 41.5062C14.213 41.5062 14.2256 41.5055 14.2382 41.5053C14.238 41.5183 14.2372 41.5312 14.2372 41.5444C14.2372 42.3713 14.5592 43.1486 15.1439 43.7332C15.7285 44.3178 16.506 44.6398 17.3328 44.6398C17.3458 44.6398 17.3588 44.639 17.3719 44.6389C17.3621 45.4441 17.6631 46.2524 18.276 46.8654C18.8796 47.4688 19.6723 47.7706 20.4651 47.7706C20.4781 47.7706 20.4911 47.7698 20.504 47.7696C20.4939 48.5753 20.7949 49.3842 21.4083 49.9977L21.4614 50.0507C22.0461 50.6354 22.8234 50.9574 23.6502 50.9574C24.4771 50.9574 25.2544 50.6354 25.8391 50.0507L27.4907 48.3993L29.6649 50.5735C30.2566 51.1653 31.0434 51.4912 31.8802 51.4912C32.7171 51.4912 33.5039 51.1653 34.0956 50.5735C34.7199 49.9492 35.0243 49.1247 35.0104 48.3046C35.0287 48.305 35.0469 48.3059 35.0654 48.3059C35.9023 48.3059 36.689 47.9801 37.2808 47.3883C37.9055 46.7636 38.2099 45.9384 38.1957 45.118C38.214 45.1183 38.2323 45.1193 38.2506 45.1193C39.0528 45.1191 39.8552 44.8137 40.4658 44.2031C41.0577 43.6114 41.3835 42.8247 41.3835 41.9878C41.3835 41.9693 41.3825 41.9512 41.3822 41.9328C41.4001 41.9332 41.4179 41.9341 41.4358 41.9341C42.238 41.9341 43.0404 41.6287 43.6512 41.018C44.3154 40.3538 44.6175 39.4633 44.5595 38.5926L49.915 33.2371C50.2589 32.8931 50.2589 32.3355 49.915 31.9917C49.5707 31.6475 49.0132 31.6475 48.6691 31.9914ZM13.2568 39.3555C13.0049 39.1035 12.8662 38.7685 12.8662 38.4122C12.8662 38.0558 13.005 37.7208 13.257 37.4688L15.1603 35.5655C15.4205 35.3054 15.7621 35.1753 16.1038 35.1753C16.4454 35.1753 16.787 35.3053 17.0471 35.5654C17.5673 36.0857 17.5673 36.9321 17.0471 37.4522L15.1436 39.3556C14.6234 39.8758 13.7772 39.8757 13.2568 39.3555ZM17.3325 42.8786C16.9763 42.8786 16.6411 42.7398 16.3891 42.4878C16.1371 42.2358 15.9985 41.9008 15.9985 41.5445C15.9985 41.1882 16.1373 40.8531 16.3893 40.6011L18.2927 38.6977L19.4761 37.5143C19.7281 37.2623 20.063 37.1235 20.4194 37.1235C20.7758 37.1235 21.1108 37.2623 21.3627 37.5143C21.6146 37.7663 21.7534 38.1014 21.7534 38.4577C21.7534 38.8139 21.6146 39.1491 21.3627 39.401L18.2758 42.4879C18.0238 42.7398 17.6889 42.8786 17.3325 42.8786ZM19.5213 45.62C19.0011 45.0998 19.0011 44.2534 19.5213 43.7332L21.6222 41.6322C21.8823 41.3722 22.2238 41.2423 22.5655 41.2423C22.9071 41.2423 23.2488 41.3724 23.5088 41.6323C23.7608 41.8843 23.8996 42.2195 23.8996 42.5757C23.8996 42.9319 23.761 43.2667 23.5093 43.5185L21.408 45.6198C20.8879 46.1401 20.0415 46.1401 19.5213 45.62ZM24.5932 48.8052C24.3412 49.0572 24.0063 49.196 23.65 49.196C23.2937 49.196 22.9586 49.0572 22.7067 48.8052L22.6537 48.7523C22.1334 48.2321 22.1334 47.3857 22.6537 46.8655L24.7545 44.7648C24.7552 44.7641 24.7558 44.7633 24.7563 44.7628L25.02 44.499C25.2802 44.2389 25.6218 44.1089 25.9635 44.1089C26.305 44.1089 26.6468 44.239 26.9067 44.499L26.9597 44.552C27.48 45.0722 27.48 45.9186 26.9597 46.4388L24.5932 48.8052Z" fill="url(#paint0_linear)"/>
<path d="M59.7428 24.4372C59.3988 24.0932 58.8413 24.0931 58.4973 24.4372L55.1969 27.7375C55.1515 27.7829 55.0767 27.7836 55.0303 27.7394L43.3628 16.5943C43.3387 16.5713 43.3263 16.5427 43.3259 16.5094C43.3256 16.476 43.3374 16.4471 43.3609 16.4237L50.2811 9.5036C50.625 9.15966 50.625 8.60201 50.2811 8.2582C49.9371 7.91426 49.3796 7.91426 49.0356 8.2582L42.1154 15.1782C41.7544 15.5393 41.5589 16.0192 41.5648 16.5297C41.5696 16.9411 41.7067 17.3285 41.9523 17.6485L38.7853 20.7543L35.8015 19.0901C35.4115 18.8725 34.9694 18.7576 34.5228 18.7576H26.0448L25.3995 18.1125C24.8 17.5129 24.0943 17.0559 23.302 16.754L20.955 15.8598L19.8705 14.7753C20.4313 13.836 20.3106 12.6 19.5026 11.7921L15.9687 8.2582C15.6248 7.91426 15.0673 7.91426 14.7232 8.2582C14.3793 8.60213 14.3793 9.15978 14.7232 9.5036L18.2571 13.0375C18.5241 13.3045 18.5241 13.7391 18.2571 14.0062L11.0751 21.1883C10.7311 21.5322 10.7311 22.0899 11.0751 22.4337C11.2471 22.6056 11.4725 22.6916 11.6979 22.6916C11.9232 22.6916 12.1487 22.6057 12.3207 22.4337L18.6793 16.075L19.8427 17.2383C19.9305 17.3262 20.036 17.3944 20.152 17.4387L22.6749 18.3999C23.2193 18.6074 23.7052 18.9195 24.1209 19.3265C24.0675 19.3715 24.015 19.418 23.965 19.468L20.6156 22.8176C19.9508 23.4823 19.5848 24.3661 19.5848 25.3061C19.5848 26.2461 19.9508 27.1298 20.6154 27.7946C21.3023 28.4814 22.2007 28.8298 23.1031 28.8298C23.8917 28.8298 24.6833 28.5636 25.3388 28.0246L27.8736 25.9408H30.5139L33.5307 28.9577C33.7027 29.1296 33.9282 29.2156 34.1535 29.2156C34.3789 29.2156 34.6043 29.1297 34.7764 28.9577C35.1203 28.6137 35.1203 28.0561 34.7764 27.7122L32.5968 25.5327C32.6841 25.3961 32.7353 25.2342 32.7353 25.0601C32.7353 24.5737 32.3411 24.1794 31.8546 24.1794H27.5579C27.354 24.1794 27.1562 24.2502 26.9986 24.3799L24.2203 26.664C23.5177 27.2414 22.5037 27.1919 21.861 26.5492C21.5289 26.2171 21.3461 25.7757 21.3461 25.3062C21.3461 24.8368 21.5289 24.3952 21.861 24.0633L25.2105 20.7136C25.3358 20.5882 25.5025 20.5192 25.6798 20.5192H34.5227C34.6696 20.5192 34.815 20.557 34.9433 20.6286L38.2434 22.4691C38.7333 22.7426 39.3563 22.6598 39.759 22.2662L43.2086 18.8831L52.706 27.9552L51.3235 29.3378C50.9795 29.6817 50.9795 30.2393 51.3236 30.5832C51.4955 30.7552 51.7209 30.8411 51.9463 30.8411C52.1716 30.8411 52.3971 30.7552 52.5691 30.5832L53.9915 29.1608C54.3221 29.4059 54.7168 29.5295 55.1122 29.5295C55.5955 29.5295 56.0786 29.3469 56.4423 28.983L59.7428 25.6828C60.0866 25.3386 60.0866 24.7811 59.7428 24.4372Z" fill="url(#paint1_linear)"/>
</g>
<defs>
<linearGradient id="paint0_linear" x1="50.1729" y1="35.9798" x2="0.000244308" y2="35.9798" gradientUnits="userSpaceOnUse">
<stop stop-color="#DA3B45"/>
<stop offset="1" stop-color="#F17833"/>
</linearGradient>
<linearGradient id="paint1_linear" x1="60.0007" y1="19.4207" x2="10.8171" y2="19.4207" gradientUnits="userSpaceOnUse">
<stop stop-color="#DA3B45"/>
<stop offset="1" stop-color="#F17833"/>
</linearGradient>
<clipPath id="clip0">
<rect width="60" height="60" fill="white"/>
</clipPath>
</defs>
</svg>
