<svg width="104" height="21" viewBox="0 0 104 21" fill="none" xmlns="http://www.w3.org/2000/svg">
<g clip-path="url(#clip0)">
<path fill-rule="evenodd" clip-rule="evenodd" d="M27.2778 0C28.8733 0 30.2841 0.347244 31.4597 1.00866C32.6521 1.70315 33.559 2.67874 34.1972 3.9189C34.8354 5.17559 35.1545 6.66376 35.1545 8.36693C35.1545 10.2024 34.785 11.8063 34.0293 13.1126C33.2903 14.4354 32.2155 15.3945 30.8215 16.0063C31.5437 16.2378 32.1315 16.7669 32.6185 17.5441L33.4582 18.7842C33.6262 19.0654 33.727 19.3299 33.727 19.611C33.727 19.9583 33.5926 20.2559 33.3071 20.4709C33.0216 20.6859 32.6857 20.8181 32.3162 20.8181C32.0307 20.8181 31.762 20.7519 31.5101 20.6197C31.275 20.4874 31.0566 20.289 30.8887 20.041L29.5115 17.7921C29.2932 17.4284 29.0077 17.1638 28.655 16.9985C28.3023 16.8331 27.8489 16.7339 27.2778 16.7339C25.6487 16.7339 24.2548 16.3866 23.0624 15.7252C21.8699 15.0307 20.9631 14.0551 20.3248 12.815C19.6867 11.5417 19.3676 10.0536 19.3676 8.36693C19.3676 6.66376 19.7034 5.19213 20.3248 3.9189C20.9631 2.6622 21.8868 1.70315 23.0624 1.00866C24.2548 0.314173 25.6487 0 27.2778 0ZM67.5008 0.0165355C67.9039 0.0165355 68.2231 0.18189 68.5085 0.529134L73.3285 6.41575L78.1318 0.529134C78.4172 0.198425 78.7703 0.0330709 79.1734 0.0330709C79.5259 0.0330709 79.8451 0.165355 80.1305 0.446457C80.4158 0.727558 80.5502 1.02519 80.5502 1.42205C80.5502 1.71968 80.4331 2.03386 80.1977 2.31496L74.8402 8.74722V15.1795C74.8402 15.659 74.7059 16.0228 74.4206 16.3039C74.1346 16.585 73.7821 16.7008 73.3458 16.7008C72.8922 16.7008 72.5057 16.5685 72.2204 16.3039C71.9344 16.0393 71.8001 15.6756 71.8001 15.1795V8.74722L66.4764 2.29842C66.2413 2.01733 66.1237 1.71968 66.1237 1.40551C66.1237 1.04173 66.2581 0.711021 66.5436 0.429921C66.8291 0.148819 67.165 0.0165355 67.5008 0.0165355ZM49.8498 1.47165C48.8589 0.57874 47.4818 0.148819 45.7015 0.148819H39.9074C39.4539 0.148819 39.1012 0.281102 38.8325 0.512598C38.5638 0.760633 38.4295 1.10787 38.4295 1.55433V15.1299C38.4295 15.5929 38.5638 15.9567 38.8493 16.2378C39.1012 16.5189 39.4875 16.6512 39.941 16.6677C40.4112 16.6677 40.7807 16.5355 41.0662 16.2543C41.3517 15.9898 41.4861 15.626 41.4861 15.1464V10.1528H45.7015C47.4818 10.1528 48.8589 9.7228 49.8498 8.82991C50.8407 7.95355 51.3445 6.71337 51.3445 5.14252C51.3445 3.57165 50.8407 2.3315 49.8498 1.47165ZM14.7154 0.0165355C15.1689 0.0165355 15.572 0.148819 15.8407 0.429921C16.1262 0.711021 16.2606 1.05827 16.2606 1.50472V15.1299C16.2606 15.5764 16.1262 15.9567 15.8407 16.2378C15.5552 16.5189 15.1857 16.6512 14.7154 16.6512C14.2788 16.6512 13.9093 16.5189 13.6238 16.2378C13.3383 15.9567 13.2039 15.5929 13.2039 15.1299V1.50472C13.2039 1.05827 13.3383 0.711021 13.6238 0.429921C13.9093 0.148819 14.262 0.0165355 14.7154 0.0165355ZM60.1113 0.231496C59.8258 0.082677 59.5235 0 59.1876 0C58.8517 0 58.5494 0.0661415 58.2639 0.231496C57.9616 0.39685 57.7433 0.644882 57.6089 0.942519L51.0926 14.7165C51.0086 14.915 50.9582 15.1299 50.9582 15.3284C50.9582 15.6921 51.0926 16.0063 51.3949 16.2378C51.6804 16.4693 52.0331 16.6016 52.3858 16.6016C52.6545 16.6016 52.8896 16.5354 53.108 16.4032C53.3263 16.2709 53.4942 16.0724 53.6286 15.7913L55.0561 12.6827H63.3191L64.7466 15.7913C64.8642 16.0559 65.0489 16.2709 65.2672 16.4032C65.4856 16.5354 65.7375 16.6016 65.9726 16.6016C66.3589 16.6016 66.6947 16.4693 66.9801 16.2378C67.2661 15.9733 67.417 15.6756 67.417 15.3284C67.417 15.1134 67.3665 14.9315 67.2993 14.7165L60.7663 0.942519C60.6152 0.628346 60.3968 0.39685 60.1113 0.231496ZM1.66605 0.0330709C2.11951 0.0330709 2.52258 0.165355 2.79129 0.446457C3.0768 0.727558 3.21116 1.07481 3.21116 1.52126V14.0716H9.81143C10.752 14.0716 11.239 14.485 11.239 15.2953C11.239 16.1055 10.752 16.5189 9.81143 16.5189H1.58208C1.12863 16.5189 0.775942 16.3866 0.524022 16.1386C0.288898 15.9071 0.154541 15.5598 0.154541 15.1299V1.52126C0.154541 1.07481 0.288898 0.727558 0.574406 0.446457C0.859916 0.165355 1.2126 0.0330709 1.66605 0.0330709ZM23.6502 3.88583C24.5067 2.86063 25.6991 2.34803 27.2442 2.34803C28.7893 2.34803 29.965 2.8441 30.8215 3.88583C31.678 4.92756 32.1147 6.38267 32.1147 8.33385C32.1147 10.2519 31.678 11.7402 30.8215 12.7819C29.965 13.8236 28.7726 14.3362 27.2442 14.3362C25.716 14.3362 24.5067 13.8236 23.6502 12.7819C22.7937 11.7402 22.357 10.285 22.357 8.33385C22.357 6.38267 22.7937 4.92756 23.6502 3.88583ZM59.1876 3.48898L56.0806 10.3677H62.3114L59.1876 3.48898ZM41.4861 2.48032H45.3153C47.3978 2.48032 48.4558 3.38976 48.4558 5.17559C48.4558 6.96144 47.3978 7.87087 45.3153 7.87087L41.4861 7.85433V2.48032Z" fill="white"/>
<path fill-rule="evenodd" clip-rule="evenodd" d="M86.5966 16.1419L86.3618 15.9434C85.7905 15.4639 85.6894 14.5876 86.2101 14.0254L92.3238 7.14662C92.8106 6.58441 93.7005 6.48521 94.2718 6.99778L94.5066 7.19623C95.0779 7.67575 95.1784 8.55217 94.6583 9.11432L88.5447 15.9931C88.0578 16.5553 87.2011 16.6214 86.5966 16.1419Z" fill="url(#paint0_linear)"/>
<path opacity="0.4" fill-rule="evenodd" clip-rule="evenodd" d="M91.5004 8.33713L91.3833 8.20483L90.4429 9.2631L90.5433 9.37887C92.1555 10.9663 91.4671 12.5702 91.0973 13.1324L91.2317 12.9836C91.4505 12.7356 91.7864 12.3552 92.1389 11.9418C92.508 11.3135 93.0288 9.82531 91.5004 8.33713Z" fill="url(#paint1_linear)"/>
<path opacity="0.4" fill-rule="evenodd" clip-rule="evenodd" d="M93.5163 10.404L93.7678 10.1229C93.785 10.0898 93.8183 10.0568 93.8349 10.0237C93.5662 10.3213 93.2809 10.6355 93.0122 10.9497C93.2137 10.7347 93.382 10.5528 93.5163 10.404Z" fill="url(#paint2_radial)"/>
<path fill-rule="evenodd" clip-rule="evenodd" d="M94.6916 7.36155L88.5786 0.482799C88.0911 -0.0794063 87.2012 -0.178619 86.6305 0.333979L86.3951 0.532404C85.8238 1.01193 85.7233 1.88831 86.2441 2.45052L91.4 8.20483L91.5177 8.33713C93.0454 9.84185 92.5253 11.33 92.1389 11.9584C92.4409 11.6112 92.7435 11.2639 93.0288 10.9497C93.2975 10.6356 93.5835 10.3214 93.8522 10.0238C94.1209 9.72608 94.3723 9.44501 94.5406 9.2631C95.1285 8.70089 95.2124 7.92376 94.6916 7.36155Z" fill="url(#paint3_linear)"/>
<path fill-rule="evenodd" clip-rule="evenodd" d="M94.3557 16.1419L94.1209 15.9434C93.5496 15.4639 93.4492 14.5876 93.9693 14.0254L100.083 7.14662C100.57 6.58441 101.46 6.48521 102.031 6.99778L102.266 7.19623C102.837 7.67575 102.938 8.55217 102.417 9.11432L96.3038 15.9931C95.8169 16.5553 94.9603 16.6214 94.3557 16.1419Z" fill="url(#paint4_linear)"/>
<path opacity="0.4" fill-rule="evenodd" clip-rule="evenodd" d="M99.3267 8.27097L99.2096 8.13867L98.2692 9.19694L98.3696 9.3127C99.9818 10.9001 99.2934 12.504 98.9236 13.0663L99.058 12.9174C99.2768 12.6694 99.6127 12.2891 99.9652 11.8757C100.334 11.2473 100.855 9.75915 99.3267 8.27097Z" fill="url(#paint5_linear)"/>
<path opacity="0.4" fill-rule="evenodd" clip-rule="evenodd" d="M101.258 10.404L101.51 10.1229C101.527 10.0898 101.561 10.0568 101.577 10.0237C101.309 10.3213 101.023 10.6355 100.755 10.9497C100.956 10.7347 101.141 10.5528 101.258 10.404Z" fill="url(#paint6_radial)"/>
<path fill-rule="evenodd" clip-rule="evenodd" d="M102.434 7.36155L96.3204 0.482799C95.8335 -0.0794063 94.9436 -0.178619 94.3723 0.333979L94.1375 0.532404C93.5662 1.01193 93.4658 1.88831 93.9865 2.45052L99.1424 8.20483L99.2595 8.33713C100.788 9.84185 100.267 11.33 99.8814 11.9584C100.183 11.6112 100.486 11.2639 100.771 10.9497C101.04 10.6356 101.325 10.3214 101.594 10.0238C101.863 9.72608 102.115 9.44501 102.283 9.2631C102.87 8.70089 102.955 7.92376 102.434 7.36155Z" fill="url(#paint7_linear)"/>
</g>
<defs>
<linearGradient id="paint0_linear" x1="88.5061" y1="18.2889" x2="96.939" y2="14.1359" gradientUnits="userSpaceOnUse">
<stop stop-color="#1FADC3"/>
<stop offset="0.7072" stop-color="#36B98F"/>
</linearGradient>
<linearGradient id="paint1_linear" x1="91.4851" y1="11.784" x2="93.0698" y2="11.5496" gradientUnits="userSpaceOnUse">
<stop stop-color="#123F06" stop-opacity="0.01"/>
<stop offset="1" stop-color="#123F06"/>
</linearGradient>
<radialGradient id="paint2_radial" cx="0" cy="0" r="1" gradientUnits="userSpaceOnUse" gradientTransform="translate(90.1476 11.2637) scale(4.0948 4.60761)">
<stop offset="0.4185" stop-color="#123F06" stop-opacity="0.01"/>
<stop offset="1" stop-color="#123F06"/>
</radialGradient>
<linearGradient id="paint3_linear" x1="82.7038" y1="9.11505" x2="92.9584" y2="12.7143" gradientUnits="userSpaceOnUse">
<stop stop-color="#9FDB57"/>
<stop offset="1" stop-color="#71CA5E"/>
</linearGradient>
<linearGradient id="paint4_linear" x1="96.2579" y1="18.2931" x2="104.691" y2="14.1401" gradientUnits="userSpaceOnUse">
<stop stop-color="#1FADC3"/>
<stop offset="0.7072" stop-color="#36B98F"/>
</linearGradient>
<linearGradient id="paint5_linear" x1="99.3114" y1="11.7178" x2="100.896" y2="11.4834" gradientUnits="userSpaceOnUse">
<stop stop-color="#123F06" stop-opacity="0.01"/>
<stop offset="1" stop-color="#123F06"/>
</linearGradient>
<radialGradient id="paint6_radial" cx="0" cy="0" r="1" gradientUnits="userSpaceOnUse" gradientTransform="translate(97.8967 11.2637) scale(4.09488 4.60761)">
<stop offset="0.4185" stop-color="#123F06" stop-opacity="0.01"/>
<stop offset="1" stop-color="#123F06"/>
</radialGradient>
<linearGradient id="paint7_linear" x1="90.4509" y1="9.11807" x2="100.706" y2="12.7173" gradientUnits="userSpaceOnUse">
<stop stop-color="#9FDB57"/>
<stop offset="1" stop-color="#71CA5E"/>
</linearGradient>
<clipPath id="clip0">
<rect width="103.091" height="21" fill="white" transform="translate(0.154541)"/>
</clipPath>
</defs>
</svg>
