<svg width="36" height="21" viewBox="0 0 36 21" fill="none" xmlns="http://www.w3.org/2000/svg">
<path d="M35.1545 10.5C35.1545 16.2615 30.4699 21 24.6545 21C18.893 21 14.1545 16.2615 14.1545 10.5C14.1545 4.73846 18.8392 0 24.6007 0C30.4699 0 35.1545 4.73846 35.1545 10.5Z" fill="url(#paint0_linear)"/>
<path d="M21.1007 10.5538C21.1007 9.8 20.993 9.04615 20.8853 8.34615H14.4238C14.4776 7.96923 14.5853 7.64615 14.693 7.21538H20.4545C20.3468 6.83846 20.1853 6.46154 20.0238 6.08462H15.1238C15.2853 5.70769 15.5007 5.38462 15.7161 4.95385H19.4315C19.2161 4.57692 18.9468 4.2 18.6238 3.82308H16.5776C16.9007 3.44615 17.2238 3.12308 17.6545 2.74615C15.8238 1.02308 13.3468 0 10.6007 0C4.893 0.161538 0.154541 4.73846 0.154541 10.5C0.154541 16.2615 4.83916 21 10.6545 21C13.4007 21 15.8238 19.9231 17.7084 18.2538C18.0853 17.9308 18.4084 17.5538 18.7853 17.1231H16.6315C16.3622 16.8 16.093 16.4231 15.8776 16.0462H19.5392C19.7545 15.7231 19.9699 15.3462 20.1315 14.9154H15.2315C15.0699 14.5923 14.9084 14.2154 14.8007 13.7846H20.5622C20.8853 12.8154 21.1007 11.7385 21.1007 10.5538Z" fill="#C8191C"/>
<path d="M14.3701 13.1922L14.5317 12.223C14.4778 12.223 14.3701 12.2769 14.2625 12.2769C13.8855 12.2769 13.8317 12.0615 13.8855 11.9538L14.2086 10.0153H14.8009L14.9625 8.93839H14.424L14.5317 8.29224H13.4009C13.4009 8.29224 12.7548 11.9538 12.7548 12.3845C12.7548 13.0307 13.1317 13.3538 13.6701 13.3538C13.9932 13.3538 14.2625 13.2461 14.3701 13.1922Z" fill="white"/>
<path d="M14.7466 11.4154C14.7466 12.9769 15.8236 13.3539 16.6851 13.3539C17.4928 13.3539 17.8697 13.1923 17.8697 13.1923L18.0851 12.1154C18.0851 12.1154 17.4928 12.3846 16.9005 12.3846C15.662 12.3846 15.8774 11.4693 15.8774 11.4693H18.139C18.139 11.4693 18.3005 10.7693 18.3005 10.4462C18.3005 9.74618 17.9236 8.83079 16.6851 8.83079C15.6082 8.77695 14.7466 10.0154 14.7466 11.4154ZM16.6851 9.80003C17.2774 9.80003 17.1697 10.5 17.1697 10.5539H15.9313C15.9851 10.5 16.0928 9.80003 16.6851 9.80003Z" fill="white"/>
<path d="M23.739 13.1924L23.9544 11.9539C23.9544 11.9539 23.4159 12.2231 22.9851 12.2231C22.2313 12.2231 21.8544 11.6308 21.8544 10.9308C21.8544 9.58468 22.5005 8.88468 23.3082 8.88468C23.8467 8.88468 24.3313 9.20775 24.3313 9.20775L24.4928 8.02314C24.4928 8.02314 23.8467 7.75391 23.2005 7.75391C21.9082 7.75391 20.6697 8.88468 20.6697 10.9847C20.6697 12.3847 21.3159 13.3001 22.662 13.3001C23.1467 13.3539 23.739 13.1924 23.739 13.1924Z" fill="white"/>
<path d="M8.28543 8.77686C7.53158 8.77686 6.93927 8.99224 6.93927 8.99224L6.77773 9.96147C6.77773 9.96147 7.26235 9.74609 8.01619 9.74609C8.39312 9.74609 8.71619 9.79993 8.71619 10.123C8.71619 10.3384 8.66235 10.3922 8.66235 10.3922H8.17773C7.2085 10.3922 6.18542 10.7692 6.18542 12.0615C6.18542 13.0845 6.83158 13.2999 7.26235 13.2999C8.01619 13.2999 8.39312 12.8153 8.44696 12.8153L8.39312 13.2461H9.3085L9.73927 10.1769C9.73927 8.8307 8.66235 8.77686 8.28543 8.77686ZM8.50081 11.2538C8.50081 11.4153 8.39312 12.3307 7.74696 12.3307C7.42389 12.3307 7.31619 12.0615 7.31619 11.8999C7.31619 11.6307 7.47773 11.2538 8.33927 11.2538C8.44696 11.2538 8.50081 11.2538 8.50081 11.2538Z" fill="white"/>
<path d="M10.816 13.3001C11.0852 13.3001 12.4852 13.3539 12.4852 11.8462C12.4852 10.4462 11.1391 10.7155 11.1391 10.177C11.1391 9.90776 11.3545 9.80007 11.7314 9.80007C11.8929 9.80007 12.4852 9.85391 12.4852 9.85391L12.6468 8.83084C12.6468 8.83084 12.2698 8.72314 11.5698 8.72314C10.7622 8.72314 9.90062 9.04622 9.90062 10.177C9.90062 11.4693 11.3006 11.3616 11.3006 11.8462C11.3006 12.1693 10.9237 12.2231 10.6545 12.2231C10.1698 12.2231 9.63139 12.0616 9.63139 12.0616L9.46985 13.0847C9.57754 13.1924 9.90062 13.3001 10.816 13.3001Z" fill="white"/>
<path d="M33.0005 7.91528L32.7851 9.42298C32.7851 9.42298 32.3543 8.88451 31.7082 8.88451C30.6851 8.88451 29.8235 10.123 29.8235 11.5768C29.8235 12.4922 30.2543 13.4076 31.2235 13.4076C31.8697 13.4076 32.3005 12.9768 32.3005 12.9768L32.2466 13.3537H33.3774L34.1851 8.02298L33.0005 7.91528ZM32.462 10.823C32.462 11.4153 32.1928 12.223 31.5466 12.223C31.1697 12.223 30.9543 11.8999 30.9543 11.3076C30.9543 10.3922 31.3312 9.85374 31.8697 9.85374C32.2466 9.90759 32.462 10.1768 32.462 10.823Z" fill="white"/>
<path d="M2.20058 13.2461L2.84673 9.26144L2.95443 13.2461H3.70827L5.16212 9.26144L4.56981 13.2461H5.75443L6.66981 7.91528H4.83904L3.70827 11.1999L3.65443 7.91528H2.03904L1.12366 13.2461H2.20058Z" fill="white"/>
<path d="M19.4315 13.2461C19.7545 11.4153 19.8084 9.9076 20.6161 10.1768C20.7238 9.47683 20.8853 9.15375 20.993 8.88452H20.7776C20.293 8.88452 19.8622 9.53068 19.8622 9.53068L19.9699 8.93837H18.893L18.193 13.2461H19.4315Z" fill="white"/>
<path d="M26.3239 8.77686C25.57 8.77686 24.9777 8.99224 24.9777 8.99224L24.8162 9.96147C24.8162 9.96147 25.3008 9.74609 26.0546 9.74609C26.4316 9.74609 26.7546 9.79993 26.7546 10.123C26.7546 10.3384 26.7008 10.3922 26.7008 10.3922H26.2162C25.247 10.3922 24.2239 10.7692 24.2239 12.0615C24.2239 13.0845 24.87 13.2999 25.3008 13.2999C26.0546 13.2999 26.4316 12.8153 26.4854 12.8153L26.4316 13.2461H27.4546L27.8854 10.1769C27.8854 8.8307 26.7008 8.77686 26.3239 8.77686ZM26.5931 11.2538C26.5931 11.4153 26.4854 12.3307 25.8393 12.3307C25.5162 12.3307 25.4085 12.0615 25.4085 11.8999C25.4085 11.6307 25.57 11.2538 26.4316 11.2538C26.5393 11.2538 26.5393 11.2538 26.5931 11.2538Z" fill="white"/>
<path d="M28.7468 13.2461C29.0698 11.4153 29.1237 9.9076 29.9314 10.1768C30.0391 9.47683 30.2006 9.15375 30.3083 8.88452H30.0929C29.6083 8.88452 29.1775 9.53068 29.1775 9.53068L29.2852 8.93837H28.2083L27.5083 13.2461H28.7468Z" fill="white"/>
<defs>
<linearGradient id="paint0_linear" x1="35.1545" y1="10.5" x2="14.1545" y2="10.5" gradientUnits="userSpaceOnUse">
<stop stop-color="#FFAE02"/>
<stop offset="1" stop-color="#FF7021"/>
</linearGradient>
</defs>
</svg>
