<svg width="60" height="60" viewBox="0 0 60 60" fill="none" xmlns="http://www.w3.org/2000/svg">
<path d="M14.5994 21.2001C15.0413 21.2001 15.3994 20.8419 15.3994 20.4001C15.3994 19.9583 15.0413 19.6001 14.5994 19.6001C14.1576 19.6001 13.7994 19.9583 13.7994 20.4001C13.7994 20.8419 14.1576 21.2001 14.5994 21.2001Z" fill="url(#paint0_linear)"/>
<path d="M12.9998 45.9998C13.442 45.9998 13.7998 45.6416 13.7998 45.1998V43.5998C13.7998 43.158 13.442 42.7998 12.9998 42.7998C12.5576 42.7998 12.1998 43.158 12.1998 43.5998V45.1998C12.1998 45.6416 12.5576 45.9998 12.9998 45.9998Z" fill="url(#paint1_linear)"/>
<path d="M12.9998 47.5996C12.5576 47.5996 12.1998 47.9578 12.1998 48.3996V49.9996C12.1998 50.4414 12.5576 50.7996 12.9998 50.7996C13.442 50.7996 13.7998 50.4414 13.7998 49.9996V48.3996C13.7998 47.9578 13.442 47.5996 12.9998 47.5996Z" fill="url(#paint2_linear)"/>
<path d="M11.3996 45.999H9.79963C9.35743 45.999 8.99963 46.3572 8.99963 46.799C8.99963 47.2408 9.35743 47.599 9.79963 47.599H11.3996C11.8418 47.599 12.1996 47.2408 12.1996 46.799C12.1996 46.3572 11.8418 45.999 11.3996 45.999Z" fill="url(#paint3_linear)"/>
<path d="M16.1994 45.999H14.5994C14.1572 45.999 13.7994 46.3572 13.7994 46.799C13.7994 47.2408 14.1572 47.599 14.5994 47.599H16.1994C16.6416 47.599 16.9994 47.2408 16.9994 46.799C16.9994 46.3572 16.6416 45.999 16.1994 45.999Z" fill="url(#paint4_linear)"/>
<path d="M42.3531 20.6448C42.7163 20.839 43.1133 20.9378 43.5141 20.9378C43.7547 20.9378 43.9961 20.9022 44.2329 20.8304C44.8641 20.6394 45.3829 20.214 45.6939 19.6328C46.0041 19.0516 46.0705 18.384 45.8791 17.7532C45.6877 17.1224 45.2627 16.604 44.6815 16.293C44.1003 15.982 43.4315 15.9148 42.8019 16.1074C42.1715 16.2984 41.6527 16.7238 41.3417 17.305C41.0307 17.8862 40.9643 18.5538 41.1557 19.1846C41.3471 19.8154 41.7719 20.3338 42.3531 20.6448ZM42.7523 18.0596C42.8617 17.8554 43.0437 17.7056 43.2655 17.6386C43.3491 17.6132 43.4335 17.6008 43.5187 17.6008C43.6593 17.6008 43.7983 17.6356 43.9265 17.704C44.1305 17.8134 44.2805 17.9954 44.3475 18.2172C44.4145 18.439 44.3921 18.6738 44.2827 18.8782C44.1733 19.0826 43.9905 19.2322 43.7687 19.2992C43.3125 19.4364 42.8249 19.1788 42.6867 18.7206C42.6195 18.4986 42.6429 18.2638 42.7523 18.0596Z" fill="url(#paint5_linear)"/>
<path d="M50.4637 49.6467C46.7331 48.7141 44.4653 45.1039 43.6237 43.5053L46.0895 42.6831C46.6497 43.5847 47.8551 45.2221 49.4997 45.7703C49.5841 45.7985 49.6693 45.8117 49.7529 45.8117C50.0881 45.8117 50.4005 45.5995 50.5115 45.2641C50.6513 44.8449 50.4247 44.3923 50.0061 44.2523C48.6507 43.8007 47.5021 42.0101 47.1733 41.3581C46.9951 41.0039 46.5851 40.8323 46.2053 40.9581L42.2761 42.2679C42.0251 42.3347 35.0973 44.1555 29.5029 42.9127C25.9755 42.1287 22.6349 39.6341 20.1959 37.8123C19.8663 37.5663 19.5537 37.3331 19.2607 37.1185C18.8451 36.8149 18.2005 36.5681 17.6311 36.3501C17.3897 36.2579 17.0601 36.1313 16.9983 36.0965C16.9607 36.0673 16.9529 36.0273 16.9529 35.9993V34.4775C17.0069 33.2065 22.0569 14.6743 22.8053 12.3927C22.8217 12.3747 22.8709 12.3403 22.9045 12.3243L32.8287 7.79149L35.9997 11.9201C36.1201 12.0853 36.1091 12.3159 35.9731 12.4685L32.7699 16.0597C32.6113 16.2363 32.3449 16.2573 32.1895 16.1273L30.8941 14.9331C30.7051 14.7585 30.4487 14.6745 30.1965 14.7273C29.9441 14.7793 29.7387 14.9391 29.6333 15.1741C29.4661 15.3807 28.5013 15.5855 27.6677 15.5933L27.3497 15.5613C27.0293 15.5273 26.7239 15.6895 26.5693 15.9687C26.4139 16.2483 26.4403 16.5937 26.6357 16.8465C26.8951 17.1821 27.1013 17.4555 27.2271 17.6247L27.8591 28.3741L27.2959 29.5013C27.0983 29.8963 27.2583 30.3767 27.6537 30.5743C27.7685 30.6317 27.8905 30.6587 28.0107 30.6587C28.3045 30.6587 28.5873 30.4965 28.7271 30.2161L29.2991 29.0713C34.4299 25.2053 38.9199 28.7873 39.3189 29.1219C40.9215 30.7311 41.0419 31.7963 41.0467 31.8563C41.0585 32.2883 41.4123 32.6349 41.8467 32.6349C42.2889 32.6349 42.6467 32.2767 42.6467 31.8349C42.6467 31.6803 42.5899 30.3695 40.9253 28.4969C43.3771 25.5279 46.2941 24.5693 49.6045 25.6533C50.0225 25.7915 50.4763 25.5611 50.6131 25.1419C50.7507 24.7219 50.5217 24.2701 50.1013 24.1329C47.3271 23.2235 43.3231 23.1017 39.7185 27.4415C38.1427 26.4005 34.0139 24.3087 29.3857 27.0801L28.8099 17.2937C28.8067 17.2315 28.7959 17.1703 28.7779 17.1113C29.3029 17.0343 29.8903 16.8883 30.3561 16.6129L31.1327 17.3281C31.9819 18.0421 33.2265 17.9527 33.9639 17.1245L37.1671 13.5335C37.8015 12.8217 37.8547 11.7463 37.2803 10.9613L33.7099 6.31249C33.4825 6.01649 33.0795 5.91829 32.7435 6.07189L22.2497 10.8649C22.1301 10.9177 21.5255 11.2103 21.3231 11.8173C20.7099 13.6555 15.3527 32.9501 15.3527 34.4705V35.9997C15.3527 36.5341 15.5925 37.0287 16.0113 37.3567C16.2191 37.5191 16.5137 37.6359 17.0589 37.8445C17.4871 38.0085 18.0729 38.2327 18.3159 38.4101C18.6049 38.6219 18.9127 38.8519 19.2377 39.0945C21.7931 41.0027 25.2931 43.6163 29.1557 44.4745C34.2261 45.6015 40.1049 44.4299 42.0573 43.9709C42.8463 45.5607 45.2363 49.6573 49.4697 51.0255V52.3993C49.4697 52.8411 49.8275 53.1993 50.2697 53.1993C50.7119 53.1993 51.0697 52.8411 51.0697 52.3993V50.4227C51.0699 50.0557 50.8199 49.7359 50.4637 49.6467Z" fill="url(#paint6_linear)"/>
<path d="M37.0671 39.6174C28.5437 41.4466 24.8945 35.6232 24.7429 35.3744C24.5155 34.997 24.0257 34.8752 23.6469 35.1022C23.2679 35.3296 23.1453 35.821 23.3727 36.1998C23.4173 36.2732 24.4813 38.0212 26.7501 39.5048C28.3119 40.5258 30.6939 41.5666 33.9125 41.5666C34.9829 41.5666 36.1461 41.4514 37.4031 41.1822C37.8351 41.0896 38.1101 40.6642 38.0171 40.2322C37.9249 39.7998 37.5039 39.5236 37.0671 39.6174Z" fill="url(#paint7_linear)"/>
<defs>
<linearGradient id="paint0_linear" x1="15.3994" y1="20.4001" x2="13.7994" y2="20.4001" gradientUnits="userSpaceOnUse">
<stop stop-color="#DA3B45"/>
<stop offset="1" stop-color="#F17833"/>
</linearGradient>
<linearGradient id="paint1_linear" x1="13.7998" y1="44.3998" x2="12.1998" y2="44.3998" gradientUnits="userSpaceOnUse">
<stop stop-color="#DA3B45"/>
<stop offset="1" stop-color="#F17833"/>
</linearGradient>
<linearGradient id="paint2_linear" x1="13.7998" y1="49.1996" x2="12.1998" y2="49.1996" gradientUnits="userSpaceOnUse">
<stop stop-color="#DA3B45"/>
<stop offset="1" stop-color="#F17833"/>
</linearGradient>
<linearGradient id="paint3_linear" x1="12.1996" y1="46.799" x2="8.99963" y2="46.799" gradientUnits="userSpaceOnUse">
<stop stop-color="#DA3B45"/>
<stop offset="1" stop-color="#F17833"/>
</linearGradient>
<linearGradient id="paint4_linear" x1="16.9994" y1="46.799" x2="13.7994" y2="46.799" gradientUnits="userSpaceOnUse">
<stop stop-color="#DA3B45"/>
<stop offset="1" stop-color="#F17833"/>
</linearGradient>
<linearGradient id="paint5_linear" x1="45.9864" y1="18.4687" x2="41.0485" y2="18.4687" gradientUnits="userSpaceOnUse">
<stop stop-color="#DA3B45"/>
<stop offset="1" stop-color="#F17833"/>
</linearGradient>
<linearGradient id="paint6_linear" x1="51.0697" y1="29.5997" x2="15.3527" y2="29.5997" gradientUnits="userSpaceOnUse">
<stop stop-color="#DA3B45"/>
<stop offset="1" stop-color="#F17833"/>
</linearGradient>
<linearGradient id="paint7_linear" x1="38.0352" y1="38.2772" x2="23.2585" y2="38.2772" gradientUnits="userSpaceOnUse">
<stop stop-color="#DA3B45"/>
<stop offset="1" stop-color="#F17833"/>
</linearGradient>
</defs>
</svg>
