<svg width="60" height="60" viewBox="0 0 60 60" fill="none" xmlns="http://www.w3.org/2000/svg">
<path d="M47.9019 15.7187L29.8615 6.10577C29.5938 5.96293 29.2731 5.96493 29.0074 6.11078L11.4661 15.7237C11.1784 15.8816 11 16.1833 11 16.5116V29.0685C11.0105 39.3906 17.1261 48.7289 26.5836 52.8642L29.0184 53.9252C29.246 54.0245 29.5051 54.025 29.7331 53.9262L32.4767 52.7414C42.1096 48.6958 48.3766 39.2673 48.3776 28.8194V16.5116C48.3776 16.1798 48.1946 15.8746 47.9019 15.7187ZM46.5813 28.8194C46.5793 38.5471 40.7429 47.3245 31.7735 51.089L31.7675 51.092L29.3783 52.1234L27.3024 51.2178C18.4989 47.3686 12.8058 38.6769 12.7958 29.0685V17.0433L29.445 7.91859L46.5813 17.0499V28.8194Z" fill="url(#paint0_linear)"/>
<path d="M22.8189 28.4862C22.4966 28.1088 21.9297 28.0642 21.5523 28.3865C21.1749 28.7082 21.1303 29.2756 21.4526 29.6525L26.1969 35.2082C26.5137 35.5791 27.0685 35.6297 27.4464 35.322L38.4957 26.3326C38.8806 26.0198 38.9388 25.454 38.6255 25.0691C38.3128 24.6847 37.7469 24.626 37.362 24.9393L26.9933 33.3744L22.8189 28.4862Z" fill="url(#paint1_linear)"/>
<defs>
<linearGradient id="paint0_linear" x1="48.3776" y1="30" x2="11" y2="30" gradientUnits="userSpaceOnUse">
<stop stop-color="#DA3B45"/>
<stop offset="1" stop-color="#F17833"/>
</linearGradient>
<linearGradient id="paint1_linear" x1="38.8272" y1="30.1306" x2="21.2373" y2="30.1306" gradientUnits="userSpaceOnUse">
<stop stop-color="#DA3B45"/>
<stop offset="1" stop-color="#F17833"/>
</linearGradient>
</defs>
</svg>
