<svg width="60" height="60" viewBox="0 0 60 60" fill="none" xmlns="http://www.w3.org/2000/svg">
<path d="M29.8328 12.0994C30.3543 12.0994 30.777 11.6767 30.777 11.1552V6.94416C30.777 6.42272 30.3543 6 29.8328 6C29.3114 6 28.8887 6.42272 28.8887 6.94416V11.1552C28.8888 11.6767 29.3115 12.0994 29.8328 12.0994Z" fill="url(#paint0_linear)"/>
<path d="M52.9112 38.4364L51.2433 36.7731C50.6499 36.1806 49.8591 35.8541 49.0165 35.8541C48.4777 35.8541 47.9605 35.9882 47.5022 36.2393L44.3591 33.1L44.5122 32.9471C45.7873 31.6695 45.7868 29.5934 44.5121 28.3201C44.0566 27.8637 43.4882 27.5594 42.8686 27.4313C42.9539 27.1369 42.9988 26.8284 42.9988 26.5128C42.9988 25.6357 42.6581 24.8134 42.0414 24.1992C41.5858 23.7428 41.0175 23.4385 40.3979 23.3105C40.4832 23.016 40.5281 22.7076 40.5281 22.3919C40.5281 21.5148 40.1874 20.6925 39.5697 20.0774C39.1032 19.6115 38.5297 19.3165 37.9276 19.191C38.2497 18.0803 37.9745 16.8307 37.1007 15.9555C36.3734 15.2313 35.3865 14.92 34.4354 15.0209L28.2071 13.842C27.2572 13.6618 26.071 13.5426 25.3222 14.2256C25.275 14.2687 25.2268 14.3183 25.1794 14.3736C24.0184 13.9504 22.6642 14.2024 21.7345 15.131C21.1177 15.7471 20.778 16.5691 20.778 17.4456C20.778 17.7614 20.8227 18.0697 20.9079 18.3643C20.289 18.4923 19.7213 18.7962 19.2673 19.2511C18.6493 19.8666 18.3085 20.6876 18.3079 21.5631C18.3076 21.8796 18.3525 22.189 18.4382 22.4843C17.819 22.612 17.2509 22.9154 16.7955 23.3703C16.1775 23.9876 15.8372 24.8101 15.8372 25.6862C15.8372 26.3572 16.0375 26.9965 16.4088 27.5365C15.94 27.6954 15.5107 27.9599 15.1511 28.3191C13.8752 29.5934 13.8747 31.6696 15.152 32.9491L15.3045 33.101L12.1611 36.2387C10.9928 35.6886 9.5535 35.8947 8.58947 36.8575L6.92053 38.5218C6.32691 39.1146 6.00009 39.9055 6 40.7486C6 41.5918 6.32691 42.3828 6.92053 42.9757L9.00337 45.0561C9.37228 45.4246 9.97012 45.4242 10.3386 45.0553C10.7071 44.6864 10.7067 44.0886 10.3378 43.7201L8.25497 41.6398C8.01853 41.4036 7.88831 41.0871 7.88831 40.7487C7.88831 40.4104 8.01853 40.094 8.25441 39.8584L9.92344 38.194C10.3404 37.7775 10.9787 37.7154 11.4634 38.0052C11.4975 38.0565 11.537 38.1052 11.5822 38.1505C11.6631 38.2316 11.7554 38.2938 11.8535 38.3392L21.4247 47.8964C21.4702 47.9955 21.5326 48.0888 21.6141 48.1703C21.6934 48.2497 21.7838 48.3111 21.8798 48.3563C22.0822 48.5852 22.1941 48.8775 22.1941 49.1893C22.1941 49.5277 22.0639 49.8441 21.8274 50.0803L20.1601 51.7457C19.6674 52.2362 18.8661 52.2361 18.3749 51.7472L16.2921 49.6641C15.9233 49.2954 15.3256 49.2954 14.9569 49.6641C14.5882 50.0329 14.5882 50.6306 14.9569 50.9993L17.0412 53.0839C17.6547 53.6948 18.4604 54.0002 19.2665 54.0002C20.0727 54.0002 20.8793 53.6944 21.4936 53.0828L23.162 51.4164C23.7556 50.8235 24.0825 50.0326 24.0825 49.1893C24.0825 48.5875 23.9152 48.0128 23.604 47.5173L27.1417 43.9838C27.1455 43.98 27.1492 43.9761 27.1531 43.9723C27.5582 43.5535 28.6863 43.6319 29.7772 43.7076C30.5524 43.7616 31.4166 43.8215 32.2609 43.7241L36.135 47.5937C35.884 48.0513 35.7501 48.5678 35.7501 49.1058C35.7501 49.9481 36.077 50.7385 36.6706 51.3315L38.3391 52.9979C38.9323 53.5905 39.7231 53.9169 40.5657 53.9169C41.4082 53.9169 42.199 53.5906 42.7924 52.9979L52.9118 42.8907C53.5055 42.2978 53.8324 41.507 53.8324 40.6638C53.8323 39.8207 53.5054 39.0298 52.9112 38.4364ZM27.8556 15.6973L31.9512 16.4725L29.4997 18.9231C29.1205 18.7408 28.6008 18.4009 28.0306 17.8554C27.2501 17.1088 26.6918 16.2468 26.641 15.7091C26.6409 15.7088 26.6409 15.7086 26.6409 15.7083C26.6409 15.7082 26.6408 15.7081 26.6408 15.708C26.6372 15.6694 26.6362 15.6385 26.6367 15.615C26.7602 15.585 27.0881 15.5517 27.8556 15.6973ZM23.0689 16.4671C23.5472 15.9892 24.2902 15.9341 24.8307 16.3001C25.137 17.5843 26.2325 18.7482 26.7253 19.2198C27.0906 19.5693 28.2625 20.6171 29.4455 20.9051C29.6055 21.1345 29.6926 21.408 29.6926 21.6966C29.6926 22.0683 29.5496 22.4158 29.2891 22.6761C29.0293 22.9363 28.6812 23.0796 28.3088 23.0796C27.9364 23.0796 27.5883 22.9363 27.3273 22.6748L27.3272 22.6747L27.3267 22.6743L23.0688 18.424C22.8092 18.1648 22.6662 17.8173 22.6662 17.4456C22.6663 17.0739 22.8093 16.7264 23.0689 16.4671ZM20.6017 20.5871C20.8615 20.327 21.2092 20.1836 21.5811 20.1836C21.9533 20.1836 22.3022 20.3272 22.5637 20.5884L25.9923 24.0102C26.5322 24.551 26.5322 25.4309 25.9942 25.9698C25.733 26.2299 25.3837 26.3732 25.0106 26.3732C24.6376 26.3732 24.2883 26.2299 24.0282 25.9709L24.0281 25.9708L21.427 23.3703C21.423 23.3662 21.4186 23.3625 21.4145 23.3584L20.6007 22.545C20.3396 22.2842 20.1959 21.936 20.1962 21.5646C20.1966 21.1943 20.3398 20.8479 20.6017 20.5871ZM18.1299 24.7063C18.3899 24.4467 18.7384 24.3037 19.1113 24.3037C19.4812 24.3037 19.8266 24.4446 20.0855 24.6997L22.6945 27.3076C22.9547 27.5667 23.098 27.9139 23.098 28.2851C23.098 28.6563 22.9547 29.0034 22.6935 29.2636C22.4336 29.5231 22.0855 29.6661 21.7132 29.6661C21.3404 29.6661 20.9912 29.5227 20.7309 29.2636L19.7851 28.3189C19.7849 28.3186 19.7846 28.3184 19.7844 28.3182L18.13 26.6658C17.8692 26.4052 17.7256 26.0572 17.7256 25.686C17.7256 25.3148 17.8692 24.9667 18.1299 24.7063ZM16.4856 29.655C16.7467 29.3942 17.0956 29.2506 17.4681 29.2506C17.8404 29.2506 18.1893 29.3941 18.4503 29.6547L19.3974 30.6007C19.6577 30.8599 19.8009 31.207 19.8009 31.5783C19.8009 31.9495 19.6576 32.2966 19.3955 32.5578C19.1357 32.8179 18.7876 32.9613 18.4152 32.9613C18.0427 32.9613 17.6947 32.818 17.433 32.5559L17.3144 32.4378C17.3128 32.4362 17.3116 32.4345 17.3101 32.433C17.3083 32.4313 17.3064 32.4298 17.3047 32.4281L16.4865 31.6131C15.9466 31.0721 15.9461 30.1938 16.4856 29.655ZM35.7262 40.3854C35.3577 40.0164 34.7599 40.0161 34.3911 40.3846L33.5511 41.2236C32.7529 42.0217 31.3066 41.9212 29.9079 41.8242C28.3891 41.7186 26.8185 41.6097 25.8022 42.6531L22.3245 46.1266L13.628 37.4428L16.7056 34.3707C17.2143 34.6825 17.8012 34.8497 18.4154 34.8497C19.2928 34.8497 20.1156 34.5096 20.7301 33.8939C21.3487 33.2778 21.6895 32.4555 21.6895 31.5784C21.6895 31.5702 21.689 31.5621 21.689 31.554C21.6971 31.5541 21.7053 31.5546 21.7134 31.5546C22.5896 31.5546 23.4117 31.2155 24.0271 30.6008C24.6457 29.9847 24.9865 29.1623 24.9865 28.2853C24.9865 28.2771 24.986 28.2691 24.986 28.2609C24.9942 28.2609 25.0025 28.2615 25.0108 28.2615C25.8867 28.2615 26.7093 27.9228 27.3288 27.3058C27.9719 26.6616 28.29 25.8136 28.2839 24.9673C28.2923 24.9674 28.3008 24.9679 28.3092 24.9679C29.1866 24.9678 30.0093 24.6277 30.6247 24.0111C31.2415 23.3951 31.5813 22.5731 31.5813 21.6966C31.5813 21.0835 31.4146 20.4975 31.1038 19.9898L33.8013 17.2935C34.0023 17.0933 34.2502 16.9677 34.5099 16.9159C34.5381 16.9129 34.5658 16.9084 34.5933 16.9029C35.0101 16.8455 35.4478 16.9741 35.7666 17.2915C36.3065 17.8324 36.3065 18.7123 35.7685 19.2512L34.947 20.0693C34.9443 20.0721 34.9414 20.0745 34.9387 20.0772L33.9924 21.0218C33.6234 21.3903 33.6231 21.9881 33.9916 22.357C34.3602 22.726 34.958 22.7263 35.3268 22.3579L36.1516 21.5342C36.1518 21.534 36.152 21.5338 36.1522 21.5336L36.2768 21.4094C36.8182 20.873 37.6954 20.8741 38.2362 21.4142C38.4965 21.6733 38.6398 22.0205 38.6398 22.3917C38.6398 22.7629 38.4965 23.11 38.2342 23.3712L37.4079 24.1991C37.4078 24.1992 37.4077 24.1993 37.4077 24.1995L36.4615 25.1418C36.0921 25.5097 36.0908 26.1076 36.4588 26.477C36.8268 26.8464 37.4245 26.8476 37.794 26.4797L38.7444 25.5331C39.0042 25.2728 39.3523 25.1296 39.7247 25.1296C40.0972 25.1296 40.4453 25.2728 40.707 25.535C40.9672 25.7942 41.1105 26.1413 41.1105 26.5126C41.1105 26.8837 40.9672 27.2309 40.7055 27.4915L39.0583 29.1394C38.6897 29.5082 38.6898 30.1059 39.0585 30.4746C39.2429 30.6589 39.4844 30.7509 39.726 30.7509C39.9677 30.7509 40.2094 30.6587 40.3937 30.4743L41.201 29.6667C41.2056 29.6623 41.2105 29.6585 41.2151 29.6539C41.4749 29.3936 41.823 29.2504 42.1954 29.2504C42.5678 29.2504 42.9159 29.3936 43.1767 29.6548C43.716 30.1936 43.7155 31.072 43.1767 31.6118L42.3559 32.4317C42.3556 32.432 42.3552 32.4322 42.3549 32.4325C42.3547 32.4328 42.3544 32.4332 42.3541 32.4335L41.0513 33.7346C40.6824 34.1031 40.6821 34.701 41.0505 35.0699C41.2349 35.2545 41.4768 35.3468 41.7186 35.3468C41.96 35.3468 42.2015 35.2548 42.3858 35.0707L43.023 34.4343L46.0771 37.4848L37.3813 46.17L34.2656 43.0581C34.4828 42.9184 34.6907 42.7541 34.8858 42.559L35.7253 41.7205C36.0944 41.3522 36.0948 40.7543 35.7262 40.3854ZM51.5773 41.5547L41.4578 51.6619C41.2211 51.8983 40.9042 52.0285 40.5656 52.0285C40.227 52.0285 39.9101 51.8983 39.6733 51.6618L38.0048 49.9954C37.7684 49.7593 37.6382 49.4434 37.6382 49.1058C37.6382 48.7683 37.7684 48.4523 38.0048 48.2162L48.1243 38.109C48.3611 37.8725 48.6779 37.7422 49.0166 37.7422C49.3552 37.7422 49.6721 37.8725 49.9095 38.1096L51.5774 39.7728C51.8138 40.0089 51.9441 40.3252 51.9441 40.6637C51.944 41.0022 51.8137 41.3186 51.5773 41.5547Z" fill="url(#paint1_linear)"/>
<path d="M17.2948 11.3034C17.4791 11.4874 17.7204 11.5792 17.9617 11.5792C18.2036 11.5792 18.4456 11.4868 18.63 11.302C18.9983 10.9329 18.9978 10.3352 18.6287 9.96684L15.1882 6.53324C14.8192 6.1649 14.2214 6.16537 13.853 6.53456C13.4847 6.90365 13.4853 7.5014 13.8543 7.86974L17.2948 11.3034Z" fill="url(#paint2_linear)"/>
<path d="M41.7029 11.5792C41.9443 11.5792 42.1858 11.4871 42.3701 11.3031L45.808 7.86943C46.1769 7.50099 46.1772 6.90314 45.8087 6.53424C45.4403 6.16533 44.8425 6.16496 44.4735 6.53349L41.0357 9.96718C40.6668 10.3356 40.6664 10.9335 41.035 11.3024C41.2194 11.487 41.4611 11.5792 41.7029 11.5792Z" fill="url(#paint3_linear)"/>
<path d="M11.805 46.6128C11.4395 46.9846 11.4446 47.5825 11.8165 47.948L11.8192 47.9506C12.0027 48.131 12.2409 48.2208 12.479 48.2208C12.7234 48.2208 12.9678 48.1262 13.153 47.9379C13.5185 47.5661 13.512 46.9669 13.1402 46.6014C12.7685 46.2359 12.1708 46.241 11.805 46.6128Z" fill="url(#paint4_linear)"/>
<path d="M38.0354 39.0252C38.179 39.0252 38.3247 38.9925 38.4615 38.9236C38.9271 38.6887 39.1141 38.121 38.8793 37.6554C38.6445 37.1899 38.0767 37.0027 37.6112 37.2376L37.6059 37.2402C37.1404 37.4751 36.956 38.0415 37.1907 38.5071C37.3565 38.8359 37.6899 39.0252 38.0354 39.0252Z" fill="url(#paint5_linear)"/>
<defs>
<linearGradient id="paint0_linear" x1="30.777" y1="9.04969" x2="28.8887" y2="9.04969" gradientUnits="userSpaceOnUse">
<stop stop-color="#DA3B45"/>
<stop offset="1" stop-color="#F17833"/>
</linearGradient>
<linearGradient id="paint1_linear" x1="53.8324" y1="33.8512" x2="6" y2="33.8512" gradientUnits="userSpaceOnUse">
<stop stop-color="#DA3B45"/>
<stop offset="1" stop-color="#F17833"/>
</linearGradient>
<linearGradient id="paint2_linear" x1="18.9059" y1="8.91829" x2="13.5771" y2="8.91829" gradientUnits="userSpaceOnUse">
<stop stop-color="#DA3B45"/>
<stop offset="1" stop-color="#F17833"/>
</linearGradient>
<linearGradient id="paint3_linear" x1="46.0849" y1="8.91827" x2="40.7588" y2="8.91827" gradientUnits="userSpaceOnUse">
<stop stop-color="#DA3B45"/>
<stop offset="1" stop-color="#F17833"/>
</linearGradient>
<linearGradient id="paint4_linear" x1="13.4231" y1="47.2757" x2="11.5342" y2="47.2757" gradientUnits="userSpaceOnUse">
<stop stop-color="#DA3B45"/>
<stop offset="1" stop-color="#F17833"/>
</linearGradient>
<linearGradient id="paint5_linear" x1="38.9807" y1="38.0807" x2="37.0889" y2="38.0807" gradientUnits="userSpaceOnUse">
<stop stop-color="#DA3B45"/>
<stop offset="1" stop-color="#F17833"/>
</linearGradient>
</defs>
</svg>
