<svg width="25" height="25" viewBox="0 0 25 25" fill="none" xmlns="http://www.w3.org/2000/svg">
<g clip-path="url(#clip0)">
<path d="M12.1993 0.11434C12.1759 0.133794 12.1542 0.155365 12.1348 0.178827L4.90159 7.25979C4.6703 7.47416 4.65661 7.83551 4.87098 8.06679C4.9773 8.18149 5.12594 8.24758 5.28232 8.24962L9.08928 8.24962L9.08928 17.4244C9.08928 17.767 9.16542 18.1477 9.46994 18.1477L15.5611 18.1477C15.9473 18.1025 16.2575 17.8079 16.3225 17.4243L16.3225 8.24962L19.7487 8.24962C19.9765 8.24408 20.182 8.1119 20.2816 7.907L20.2816 7.67856C20.2754 7.51949 20.207 7.36916 20.0913 7.25979L12.8962 0.178827C12.7215 -0.0314678 12.4095 -0.0603241 12.1993 0.11434Z" fill="#4F4F4F"/>
<path d="M8.89844 19.8606C8.89844 20.1759 9.15413 20.4316 9.4695 20.4316L15.5606 20.4316C15.876 20.4316 16.1317 20.1759 16.1317 19.8606C16.1317 19.5452 15.876 19.2895 15.5606 19.2895L9.4695 19.2895C9.15406 19.2896 8.89844 19.5452 8.89844 19.8606Z" fill="#4F4F4F"/>
<path d="M8.89844 22.1448C8.89844 22.4601 9.15413 22.7158 9.4695 22.7158L15.5606 22.7158C15.876 22.7158 16.1317 22.4601 16.1317 22.1448C16.1317 21.8294 15.876 21.5737 15.5606 21.5737L9.4695 21.5737C9.15406 21.5738 8.89844 21.8294 8.89844 22.1448Z" fill="#4F4F4F"/>
<path d="M8.89844 24.4289C8.89844 24.7443 9.15413 25 9.4695 25L15.5606 25C15.876 25 16.1317 24.7443 16.1317 24.4289C16.1317 24.1136 15.876 23.8579 15.5606 23.8579L9.4695 23.8579C9.15406 23.8579 8.89844 24.1136 8.89844 24.4289Z" fill="#4F4F4F"/>
</g>
<defs>
<clipPath id="clip0">
<rect width="25" height="25" fill="white" transform="translate(0 25) rotate(-90)"/>
</clipPath>
</defs>
</svg>
