<svg width="70" height="21" viewBox="0 0 70 21" fill="none" xmlns="http://www.w3.org/2000/svg">
<path d="M64.5545 0.300049H60.2545C58.9545 0.300049 57.9545 0.700049 57.3545 2.00005L49.1545 20.7H54.9545C54.9545 20.7 55.9545 18.2001 56.1545 17.6C56.7545 17.6 62.4545 17.6 63.2545 17.6C63.4545 18.3001 63.9545 20.6 63.9545 20.6H69.1545L64.5545 0.300049ZM57.7545 13.4C58.2545 12.2 59.9545 7.70005 59.9545 7.70005C59.9545 7.80005 60.4545 6.50005 60.6545 5.80005L61.0545 7.60005C61.0545 7.60005 62.1545 12.5 62.3545 13.5H57.7545V13.4Z" fill="#3362AB"/>
<path d="M49.5545 14C49.5545 18.2 45.7545 21 39.8545 21C37.3545 21 34.9545 20.5 33.6545 19.9L34.4545 15.3L35.1545 15.6C36.9545 16.4 38.1545 16.7 40.3545 16.7C41.9545 16.7 43.6545 16.1 43.6545 14.7C43.6545 13.8 42.9545 13.2 40.7545 12.2C38.6545 11.2 35.8545 9.6 35.8545 6.7C35.8545 2.7 39.7545 0 45.2545 0C47.3545 0 49.1545 0.4 50.2545 0.9L49.4545 5.3L49.0545 4.9C48.0545 4.5 46.7545 4.1 44.8545 4.1C42.7545 4.2 41.7545 5.1 41.7545 5.9C41.7545 6.8 42.9545 7.5 44.8545 8.4C48.0545 9.9 49.5545 11.6 49.5545 14Z" fill="#3362AB"/>
<path d="M0.754517 0.500098L0.854517 0.100098H9.45452C10.6545 0.100098 11.5545 0.500098 11.8545 1.8001L13.7545 10.8001C11.8545 6.0001 7.45452 2.1001 0.754517 0.500098Z" fill="url(#paint0_linear)"/>
<path d="M25.8545 0.299951L17.1545 20.6H11.2545L6.25452 3.59995C9.85452 5.89995 12.8545 9.49995 13.9545 12L14.5545 14.1L19.9545 0.199951H25.8545V0.299951Z" fill="#3362AB"/>
<path d="M28.1545 0.199951H33.6545L30.1545 20.6H24.6545L28.1545 0.199951Z" fill="#3362AB"/>
<defs>
<linearGradient id="paint0_linear" x1="13.7545" y1="5.4501" x2="0.754517" y2="5.4501" gradientUnits="userSpaceOnUse">
<stop stop-color="#DA3B45"/>
<stop offset="1" stop-color="#F17833"/>
</linearGradient>
</defs>
</svg>
