<svg width="30" height="30" viewBox="0 0 30 30" fill="none" xmlns="http://www.w3.org/2000/svg">
<path d="M13.2979 17.1949L17.9431 14.7307L13.2979 12.3164V17.1949Z" fill="#F17634"/>
<path d="M15 0C6.71581 0 0 6.71581 0 15C0 23.2842 6.71581 30 15 30C23.2842 30 30 23.2842 30 15C30 6.71581 23.2842 0 15 0ZM23.3751 18.4936C23.1753 19.759 22.5636 20.4461 21.2772 20.5915C19.8396 20.754 16.6073 20.8288 15.1706 20.8288C13.6841 20.8288 10.6775 20.7664 9.17667 20.6414C7.88662 20.534 7.00631 19.8134 6.82897 18.531C6.69999 17.5971 6.61665 16.4872 6.61665 14.7223C6.61665 12.7575 6.68752 11.9262 6.85391 11.0386C7.09148 9.77196 7.6962 9.15842 9.07659 9.01576C10.5251 8.86579 11.8946 8.79096 14.9583 8.79096C16.4561 8.79096 19.6854 8.86853 21.1771 9.00329C22.4799 9.12101 23.2139 9.91797 23.3748 11.1886C23.4871 12.0753 23.5872 13.3446 23.5872 14.7101C23.5875 17.1074 23.3751 18.4936 23.3751 18.4936Z" fill="#F17634"/>
</svg>
